<?xml version="1.0" encoding="utf-8"?>
<!-- Generator: Adobe Illustrator 24.2.1, SVG Export Plug-In . SVG Version: 6.00 Build 0)  -->
<svg version="1.1" id="Layer_1" xmlns="http://www.w3.org/2000/svg" xmlns:xlink="http://www.w3.org/1999/xlink" x="0px" y="0px"
	 viewBox="0 0 1435 1435" style="enable-background:new 0 0 1435 1435;" xml:space="preserve">
<style type="text/css">
	.st0{fill:#231F20;}
	.st1{fill:url(#SVGID_1_);}
	.st2{fill:#9BD1CA;}
	.st3{fill:url(#SVGID_2_);}
	.st4{fill:url(#SVGID_3_);}
	.st5{fill:url(#SVGID_4_);}
	.st6{fill:url(#SVGID_5_);}
	.st7{opacity:0.8;}
	.st8{fill:url(#SVGID_6_);}
	.st9{fill:#FFFFFF;}
	.st10{fill:url(#SVGID_7_);}
	.st11{fill:url(#SVGID_8_);}
	.st12{fill:url(#SVGID_9_);}
	.st13{fill:url(#SVGID_10_);}
	.st14{fill:url(#SVGID_11_);}
	.st15{fill:#00FFDC;}
	.st16{fill:url(#SVGID_12_);}
</style>
<g>
	<path class="st0" d="M462.9,845.7c9.7-10.1,19.5-20.1,29.4-30.1c9.8-10,19.8-19.8,29.8-29.7c10-9.8,20.1-19.6,30.2-29.3l15.3-14.5
		l7.7-7.2l7.9-7.3c10.7-9.8,27.4-9.1,37.2,1.6c9.8,10.7,9.1,27.4-1.6,37.2c-0.7,0.6-1.4,1.2-2.1,1.7l-0.3,0.2l-8.1,6l-8.2,6.2
		l-16.4,12.6c-10.9,8.4-21.8,17-32.6,25.6c-10.8,8.6-21.6,17.3-32.3,26.1c-10.7,8.8-21.4,17.6-32,26.5l-0.1,0
		c-7.4,6.2-18.5,5.2-24.7-2.2C456.3,862.2,456.8,852.1,462.9,845.7z"/>
	<path class="st0" d="M321.5,979.4c-11.7,7.5-30.8,0.6-41.9-7.2c-5.5-3.8-21-13-25.7-13.6c-5.9-0.7-6.6-10.9,6.5-11.3
		c13.1-0.4,20.8,7.3,21.2,2.8c0.2-1.8-6.1-8.6-8.3-11.4c-10.5-12.6-12.9-15-20-19.8c-3.5-2.4-18.7-17.5-11.4-22.7
		c2.1-1.5,6.7,0.7,8.7,1.4c9.2,3.4,13.9,8.3,23.3,11.1c18.1,5.3,27,16.2,40.7,27.6c4,3.3,20.1-6.6,20.1-6.6
		c0.7,2.8,10.6,29.3,9,32.4C341.5,966.3,324.3,977.6,321.5,979.4z"/>
	<g>
		
			<radialGradient id="SVGID_1_" cx="3095.4624" cy="765.7547" r="88.5159" gradientTransform="matrix(-1.0162 -1.0923 -1.0923 1.0162 4367.3359 3442.5342)" gradientUnits="userSpaceOnUse">
			<stop  offset="0.1534" style="stop-color:#FFFFFF"/>
			<stop  offset="0.4375" style="stop-color:#FDFEFE"/>
			<stop  offset="0.5956" style="stop-color:#F5F9F9"/>
			<stop  offset="0.7227" style="stop-color:#E7F2F1"/>
			<stop  offset="0.8333" style="stop-color:#D3E8E5"/>
			<stop  offset="0.9323" style="stop-color:#BADBD6"/>
			<stop  offset="1" style="stop-color:#A4CFC9"/>
		</radialGradient>
		<path class="st1" d="M445.8,921.2c17.6-7.2,30.1-23.2,32.5-42.1c3.4-26.3,5.3-61.3-6.8-70.4C453.3,795,340.9,911.5,323.9,930.7
			c-1.9,2.2-2.9,5-2.6,7.9c0.4,5.3,2.4,14.5,10,24.6c2.9,3.9,8,5.3,12.5,3.5L445.8,921.2z"/>
		<path class="st2" d="M326.5,955.5c69.4-22.5,132.9-82.4,154.4-110.4c-0.1,11.2-1.2,23.3-2.5,34c-2.4,18.9-14.9,34.9-32.5,42.1
			l-102,45.4c-4.5,1.8-9.6,0.3-12.5-3.6C329.3,960.4,327.8,957.9,326.5,955.5z"/>
	</g>
	
		<radialGradient id="SVGID_2_" cx="779.0173" cy="3356.2766" r="222.9037" gradientTransform="matrix(1.1916 0 0 0.1576 -160.5053 852.5717)" gradientUnits="userSpaceOnUse">
		<stop  offset="0" style="stop-color:#ABABAB"/>
		<stop  offset="1" style="stop-color:#FFFFFF"/>
	</radialGradient>
	<ellipse class="st3" cx="767.8" cy="1381.5" rx="265.6" ry="35.1"/>
	<path class="st0" d="M701.5,1024.6c-0.1,7.2-0.4,14.1-0.6,21.1c-0.2,7-0.5,14-0.8,21c-0.6,14-1.3,28-2.2,42
		c-0.9,14-1.9,28-3.3,42.1c-1.4,14.1-2.9,28.2-5.2,42.4c-1.5,9.6-10.5,16.1-20.1,14.6c-8.9-1.4-15.2-9.3-14.8-18.1l0-0.3
		c0.7-13.2,0.7-26.8,0.6-40.3c-0.1-13.6-0.6-27.2-1.1-40.9c-0.6-13.7-1.3-27.3-2.2-41c-0.4-6.8-0.9-13.7-1.4-20.5
		c-0.5-6.8-1-13.7-1.6-20.3c-1.2-14.5,9.5-27.2,24-28.5c14.5-1.2,27.2,9.5,28.5,24C701.5,1022.8,701.5,1023.7,701.5,1024.6z"/>
	<path class="st0" d="M802.2,1013.8c7.6,11.9,14.9,23.6,22.3,35.4l21.9,35.4c14.5,23.7,29,47.4,43.3,71.2c5,8.3,2.3,19.1-6,24.1
		c-7.7,4.7-17.7,2.6-23-4.4l-0.1-0.1c-16.6-22.1-33.4-44-50.3-65.9l-25.4-32.7c-8.5-10.8-17-21.8-25.5-32.4l0,0
		c-9.1-11.4-7.2-27.9,4.2-37c11.4-9.1,27.9-7.2,37,4.2C801.1,1012.3,801.7,1013.1,802.2,1013.8z"/>
	<path class="st0" d="M963,746c-13.8,0.6-27.7,1.3-41.5,2c-13.8,0.7-27.6,1.6-41.4,2.6c-13.8,1-27.6,2-41.3,3.2l-20.6,1.8l-10.3,1
		l-10.1,1l-0.3,0c-14.5,1.5-27.4-9-28.9-23.5c-1.5-14.5,9-27.4,23.5-28.9c0.9-0.1,1.9-0.1,2.8-0.1l10.7,0l10.6,0.1l21.1,0.4
		c14.1,0.3,28.1,0.7,42.1,1.2c14,0.5,28,1.1,42,1.8c14,0.7,28,1.5,42,2.3c9.7,0.6,17,8.9,16.5,18.6c-0.5,9-7.8,16-16.7,16.5L963,746
		z"/>
	
		<radialGradient id="SVGID_3_" cx="1427.0559" cy="-27.1127" r="54.8342" gradientTransform="matrix(1.1044 -0.488 0.7054 0.8046 -759.0554 1391.761)" gradientUnits="userSpaceOnUse">
		<stop  offset="0.1534" style="stop-color:#FFFFFF"/>
		<stop  offset="0.4375" style="stop-color:#FDFEFE"/>
		<stop  offset="0.5956" style="stop-color:#F5F9F9"/>
		<stop  offset="0.7227" style="stop-color:#E7F2F1"/>
		<stop  offset="0.8333" style="stop-color:#D3E8E5"/>
		<stop  offset="0.9323" style="stop-color:#BADBD6"/>
		<stop  offset="1" style="stop-color:#A4CFC9"/>
	</radialGradient>
	<path class="st4" d="M872.3,707.5c-1.6,11.9-27,17.4-62.5,16.1c-35.5-1.2-64.5-7.7-66-20.5c-1.6-13.3,29.7-25.5,65.2-24.3
		C844.5,680,874.1,694.3,872.3,707.5z"/>
	
		<radialGradient id="SVGID_4_" cx="993.6938" cy="649.2974" r="54.8338" gradientTransform="matrix(-1.2406 0.1568 -3.670000e-02 1.1732 1820.515 -201.4394)" gradientUnits="userSpaceOnUse">
		<stop  offset="0.1534" style="stop-color:#FFFFFF"/>
		<stop  offset="0.4375" style="stop-color:#FDFEFE"/>
		<stop  offset="0.5956" style="stop-color:#F5F9F9"/>
		<stop  offset="0.7227" style="stop-color:#E7F2F1"/>
		<stop  offset="0.8333" style="stop-color:#D3E8E5"/>
		<stop  offset="0.9323" style="stop-color:#BADBD6"/>
		<stop  offset="1" style="stop-color:#A4CFC9"/>
	</radialGradient>
	<path class="st5" d="M525.5,791c9.4,10.6,34,1.4,62.4-19.9c28.4-21.3,47.9-44,40.5-57.2c-7.7-13.7-41.7-7.7-70.2,13.6
		C529.9,748.8,515.1,779.3,525.5,791z"/>
	<path class="st0" d="M756.2,983l-63.1,5c-12.2,1-23-8.2-23.9-20.4l-3-37.2l107.4-8.6l3,37.2C777.6,971.3,768.5,982,756.2,983z"/>
	<g>
		
			<radialGradient id="SVGID_5_" cx="806.3292" cy="847.9926" r="77.8901" gradientTransform="matrix(1.4871 -0.1189 0.1189 1.4871 -579.9443 -210.8576)" gradientUnits="userSpaceOnUse">
			<stop  offset="0.1534" style="stop-color:#FFFFFF"/>
			<stop  offset="0.4375" style="stop-color:#FDFEFE"/>
			<stop  offset="0.5956" style="stop-color:#F5F9F9"/>
			<stop  offset="0.7227" style="stop-color:#E7F2F1"/>
			<stop  offset="0.8333" style="stop-color:#D3E8E5"/>
			<stop  offset="0.9323" style="stop-color:#BADBD6"/>
			<stop  offset="1" style="stop-color:#A4CFC9"/>
		</radialGradient>
		<path class="st6" d="M732.1,1077.5L732.1,1077.5c-50.3,4-94.3-33.5-98.4-83.8l-0.8-9.6c-0.6-7.3,4.8-13.6,12.1-14.2l74.8-6l81-6.5
			c7.3-0.6,13.6,4.8,14.2,12.1l0.8,9.6C819.9,1029.5,782.4,1073.5,732.1,1077.5z"/>
		<g class="st7">
			<path class="st2" d="M698.6,1076.1c-1.1,0-2.1-0.9-2.2-2l-3.4-43.1c-0.8-9.4,2.2-18.5,8.3-25.7c6.1-7.2,14.7-11.5,24.1-12.3
				c19.4-1.6,36.4,13,38,32.4l3.4,43.1c0.1,1.2-0.8,2.3-2,2.4c-1.2,0.1-2.3-0.8-2.4-2l-3.4-43.1c-0.7-8.2-4.5-15.7-10.8-21.1
				c-6.3-5.4-14.3-7.9-22.5-7.3c-8.2,0.7-15.7,4.5-21.1,10.8c-5.4,6.3-7.9,14.3-7.3,22.5l3.4,43.1c0.1,1.2-0.8,2.3-2,2.4
				C698.7,1076.1,698.6,1076.1,698.6,1076.1z"/>
		</g>
		<path class="st2" d="M815.1,969.5c-0.6-7.3-6.9-12.7-14.2-12.1l-0.9,0.1c-15.1,150.8-127,104-127.6,103.7
			c16.8,11.8,37.7,18,59.7,16.3c50.3-4,87.8-48.1,83.8-98.4L815.1,969.5z"/>
		<path class="st0" d="M813.4,968.2l-179.2,14.3c-4,0.3-7.6-2.7-7.9-6.7l0,0c-0.3-4,2.7-7.6,6.7-7.9l179.2-14.3
			c4-0.3,7.6,2.7,7.9,6.7l0,0C820.5,964.3,817.5,967.9,813.4,968.2z"/>
	</g>
	<g>
		
			<radialGradient id="SVGID_6_" cx="1112.5343" cy="662.8124" r="77.5102" gradientTransform="matrix(1.3603 -0.6126 0.6126 1.3603 -960.4671 952.4706)" gradientUnits="userSpaceOnUse">
			<stop  offset="0.1534" style="stop-color:#FFFFFF"/>
			<stop  offset="0.4375" style="stop-color:#FDFEFE"/>
			<stop  offset="0.5956" style="stop-color:#F5F9F9"/>
			<stop  offset="0.7227" style="stop-color:#E7F2F1"/>
			<stop  offset="0.8333" style="stop-color:#D3E8E5"/>
			<stop  offset="0.9323" style="stop-color:#BADBD6"/>
			<stop  offset="1" style="stop-color:#A4CFC9"/>
		</radialGradient>
		<path class="st8" d="M874.3,1121L874.3,1121c29.4,10.6,84.4,54.8,126.9,118.9c4.5,6.8,2.1,15.2-5.4,18.6l-61.3,27.6
			c-7.5,3.4-17.1,0.4-21.3-6.6c-26.6-44.1-56.7-80.2-63.8-110.7C844.8,1149.1,854.9,1129.8,874.3,1121z"/>
		<path class="st2" d="M874.3,1121c-12.6,5.7-21.3,15.8-24.5,27.6c9.4,8.5,28.9,21.1,58.6,15.5c9.7-1.8,12.4-7.5,10.8-15.3
			C901.8,1134.9,886,1125.3,874.3,1121z"/>
		<path class="st9" d="M878.5,1150c13.5,11.9,30.4,16.6,37.6,10.5s2.1-20.8-11.4-32.7c-13.5-11.9-30.4-16.6-37.6-10.5
			C859.8,1123.4,864.9,1138.1,878.5,1150z"/>
		<path class="st2" d="M853.3,1139.9L853.3,1139.9c-4.8,8.6-6.3,18.7-3.9,29c7.2,30.5,37.3,66.5,63.8,110.7c4.2,7,13.8,10,21.3,6.6
			l20.1-9C905.9,1236.3,853.3,1139.9,853.3,1139.9z"/>
	</g>
	<g>
		
			<radialGradient id="SVGID_7_" cx="726.3541" cy="1140.0901" r="67.4657" gradientTransform="matrix(1.4918 0 0 1.4918 -438.7068 -456.0797)" gradientUnits="userSpaceOnUse">
			<stop  offset="0.1534" style="stop-color:#FFFFFF"/>
			<stop  offset="0.4375" style="stop-color:#FDFEFE"/>
			<stop  offset="0.5956" style="stop-color:#F5F9F9"/>
			<stop  offset="0.7227" style="stop-color:#E7F2F1"/>
			<stop  offset="0.8333" style="stop-color:#D3E8E5"/>
			<stop  offset="0.9323" style="stop-color:#BADBD6"/>
			<stop  offset="1" style="stop-color:#A4CFC9"/>
		</radialGradient>
		<path class="st10" d="M655.8,1150L655.8,1150c-19.4,22.1-29.4,85.7-31.1,162.6c-0.2,8.2,6.4,14.9,14.6,14.9h67.2
			c8.2,0,14.8-6.8,14.6-14.9c-1.1-51.8-8-97.7-18.3-128.8C696.2,1163.6,677.2,1150,655.8,1150z"/>
		<path class="st2" d="M686,1160.2c-8.5-6.5-19-10.2-30.1-10.2c-1.9,2.1-3.6,4.8-5.4,7.7l-3.9,45
			C646.6,1202.7,677,1212.9,686,1160.2z"/>
		
			<ellipse transform="matrix(0.1361 -0.9907 0.9907 0.1361 -595.8063 1660.8082)" class="st9" cx="654.4" cy="1172" rx="32.2" ry="16.2"/>
		<path class="st2" d="M686.7,1160.7c1.7,33.5,5,112.9,1.9,166.8h18.1c8.2,0,14.8-6.8,14.6-14.9c-1.1-51.8-8-97.7-18.3-128.8
			C699.8,1174.5,694,1166.6,686.7,1160.7z"/>
	</g>
	<path class="st0" d="M1158.1,714.1c13.7-2.4,23.2-20.4,26.1-33.6c1.4-6.5,6.7-23.7,9.8-27.4c3.9-4.5-2.5-12.5-12.5-3.9
		c-10,8.6-10.4,19.4-13.8,16.4c-1.3-1.2-1.4-10.5-1.5-14c-0.7-16.4-0.6-19.7,1.4-28.1c1-4.1,2-25.5-6.9-24.4c-2.6,0.3-4.5,5-5.5,6.9
		c-4.5,8.7-4.7,15.5-9.7,23.9c-9.8,16.2-8.9,30.2-11.4,47.8c-0.7,5.2-19.3,8.7-19.3,8.7c1.4,2.6,12,28.8,15.3,30
		C1134.4,717.9,1154.8,714.6,1158.1,714.1z"/>
	<g>
		
			<radialGradient id="SVGID_8_" cx="2314.9102" cy="-1237.7551" r="88.5189" gradientTransform="matrix(1.210000e-02 -1.4918 1.4918 1.220000e-02 2834.9763 4122.4365)" gradientUnits="userSpaceOnUse">
			<stop  offset="0.1534" style="stop-color:#FFFFFF"/>
			<stop  offset="0.4375" style="stop-color:#FDFEFE"/>
			<stop  offset="0.5956" style="stop-color:#F5F9F9"/>
			<stop  offset="0.7227" style="stop-color:#E7F2F1"/>
			<stop  offset="0.8333" style="stop-color:#D3E8E5"/>
			<stop  offset="0.9323" style="stop-color:#BADBD6"/>
			<stop  offset="1" style="stop-color:#A4CFC9"/>
		</radialGradient>
		<path class="st11" d="M1027,755.1c-17.8,6.6-37.9,3.2-52.4-9.1c-20.3-17.1-45.3-41.7-42.5-56.5c4.2-22.4,165.8-12.4,191.2-9.7
			c2.9,0.3,5.5,1.7,7.2,4c3.3,4.2,8,12.3,9.2,24.9c0.5,4.8-2.3,9.4-6.9,11L1027,755.1z"/>
		<path class="st2" d="M1138.2,699.8c-66.4,30.3-153.7,28.9-188.4,22.8c7.6,8.2,16.6,16.4,24.8,23.4c14.5,12.3,34.5,15.7,52.4,9.1
			l105.9-35.4c4.6-1.7,7.3-6.3,6.8-11.1C1139.4,705.4,1138.9,702.5,1138.2,699.8z"/>
	</g>
	<g>
		
			<radialGradient id="SVGID_9_" cx="720.4603" cy="1215.7405" r="51.5781" gradientTransform="matrix(1.4918 0 0 1.4918 -438.7068 -456.0797)" gradientUnits="userSpaceOnUse">
			<stop  offset="0.1534" style="stop-color:#FFFFFF"/>
			<stop  offset="0.4375" style="stop-color:#FDFEFE"/>
			<stop  offset="0.5956" style="stop-color:#F5F9F9"/>
			<stop  offset="0.7227" style="stop-color:#E7F2F1"/>
			<stop  offset="0.8333" style="stop-color:#D3E8E5"/>
			<stop  offset="0.9323" style="stop-color:#BADBD6"/>
			<stop  offset="1" style="stop-color:#A4CFC9"/>
		</radialGradient>
		<path class="st12" d="M603.1,1381.5h117.1c6.7,0,11.9-5.8,11.2-12.5c-3.1-27.7-15.3-45-15.3-45s-20.4,3.2-31.4,0.2
			c-18.4-5-29.1-16.8-46.7-11.7c-11.3,3.3-37.7,22.4-45.8,55.1C590.4,1374.7,595.8,1381.5,603.1,1381.5z"/>
		<path class="st2" d="M678.7,1381.5h41.5c6.7,0,11.9-5.8,11.2-12.5c-3.1-27.7-15.3-45-15.3-45s-20.4,3.2-31.4,0.2
			c-18.4-5-29.1-16.8-46.7-11.7c-4.2,1.2-10.6,4.7-17.3,10.2c35-10.1,54.7-1.9,65.4,23.6C700.7,1381.4,678.7,1381.5,678.7,1381.5z"
			/>
		
			<ellipse transform="matrix(0.9747 -0.2236 0.2236 0.9747 -282.1168 194.1303)" class="st0" cx="716.3" cy="1343" rx="14.7" ry="23"/>
	</g>
	<g>
		
			<radialGradient id="SVGID_10_" cx="1345.7368" cy="534.0011" r="50.2119" gradientTransform="matrix(1.1719 -0.9232 1.1249 1.013 -1165.0651 1970.4015)" gradientUnits="userSpaceOnUse">
			<stop  offset="0.1534" style="stop-color:#FFFFFF"/>
			<stop  offset="0.4375" style="stop-color:#FDFEFE"/>
			<stop  offset="0.5956" style="stop-color:#F5F9F9"/>
			<stop  offset="0.7227" style="stop-color:#E7F2F1"/>
			<stop  offset="0.8333" style="stop-color:#D3E8E5"/>
			<stop  offset="0.9323" style="stop-color:#BADBD6"/>
			<stop  offset="1" style="stop-color:#A4CFC9"/>
		</radialGradient>
		<path class="st13" d="M1055.3,1257.4l-92,72.5c-5.3,4.1-13.8,3.4-18.2-1.6c-18.5-20.7-21.9-40-21.9-40s18.4-10.4,24.8-19.3
			c10.7-14.8,10.3-29.4,27.9-36.8c11.4-4.8,46.3-13.9,77.6,9C1059.6,1245.8,1061,1253,1055.3,1257.4z"/>
		<path class="st2" d="M971.1,1299.7c-20.8-7.7-14.2-46.9-14.2-46.9l0,0c-2.4,5.2-4.9,10.7-8.9,16.3c-6.4,8.9-24.8,19.3-24.8,19.3
			s3.4,19.3,21.9,40c4.4,5,13,5.7,18.2,1.6l53.4-42C1016.6,1287.9,991.9,1307.4,971.1,1299.7z"/>
		
			<ellipse transform="matrix(0.8759 -0.4825 0.4825 0.8759 -509.7342 613.2267)" class="st0" cx="937.2" cy="1297.5" rx="14.9" ry="22.7"/>
	</g>
	<g>
		
			<radialGradient id="SVGID_11_" cx="784.5206" cy="727.2438" r="117.7365" gradientTransform="matrix(1.4871 -0.1189 0.1189 1.4871 -579.9443 -210.8576)" gradientUnits="userSpaceOnUse">
			<stop  offset="0.1534" style="stop-color:#FFFFFF"/>
			<stop  offset="0.4375" style="stop-color:#FDFEFE"/>
			<stop  offset="0.5956" style="stop-color:#F5F9F9"/>
			<stop  offset="0.7227" style="stop-color:#E7F2F1"/>
			<stop  offset="0.8333" style="stop-color:#D3E8E5"/>
			<stop  offset="0.9323" style="stop-color:#BADBD6"/>
			<stop  offset="1" style="stop-color:#A4CFC9"/>
		</radialGradient>
		<path class="st14" d="M824.5,802.3c5.3,66.1-42.4,143.3-108.5,148.6c-66.1,5.3-125.4-63.4-130.7-129.5
			c-5.3-66.1,44-123.9,110.1-129.2C761.4,686.9,819.3,736.2,824.5,802.3z"/>
		<path class="st2" d="M713.2,915.5c-63.1,5-119.4-48.3-128.2-102.8c0,2.9,0.1,5.8,0.3,8.8c5.3,66.1,64.7,134.8,130.7,129.5
			c66.1-5.3,113.8-82.6,108.5-148.6c-0.2-2.9-0.6-5.8-1.1-8.7C823.4,848.8,776.3,910.4,713.2,915.5z"/>
		<g class="st7">
			<path class="st2" d="M778,920.7c-1.1,0-2.1-0.9-2.2-2L759,708.9c-0.1-1.2,0.8-2.3,2-2.4c1.2-0.1,2.3,0.8,2.4,2l16.8,209.8
				c0.1,1.2-0.8,2.3-2,2.4C778.1,920.7,778,920.7,778,920.7z"/>
		</g>
		<path class="st0" d="M698.5,730.7L698.5,730.7c-20,1.6-37.5-13.3-39.1-33.3l-2.3-28.6l72.4-5.8l2.3,28.6
			C733.4,711.6,718.5,729.1,698.5,730.7z"/>
		<path class="st2" d="M651.7,704.3c0,0.6,0,1.2,0.1,1.8c2,24.5,23.5,42.9,48,40.9c24.5-2,42.9-23.5,40.9-48c0-0.6-0.2-1.2-0.2-1.8
			c-14.2-4.4-29.4-6.2-45-5C679.7,693.5,665,697.7,651.7,704.3z"/>
		<g>
			
				<ellipse transform="matrix(0.9968 -7.967028e-02 7.967028e-02 0.9968 -59.4759 63.5499)" class="st15" cx="766.7" cy="777.1" rx="14.4" ry="21.3"/>
			<path class="st2" d="M767.6,800.6c-4.2,0-8.3-2.2-11.6-6.3c-3.3-4.1-5.4-9.8-5.9-15.9c-1-12.9,5.5-24.1,14.7-24.8
				c9.1-0.7,17.4,9.2,18.4,22.1l0,0c0.5,6.1-0.7,12-3.3,16.6c-2.8,4.9-6.8,7.8-11.4,8.2C768.2,800.6,767.9,800.6,767.6,800.6z
				 M765.7,758c-0.2,0-0.4,0-0.6,0c-6.6,0.5-11.5,9.7-10.6,20.1c0.4,5.3,2.2,10.1,4.9,13.5c2.6,3.2,5.7,4.9,8.8,4.6
				c3.1-0.2,5.9-2.4,7.9-5.9c2.2-3.9,3.1-8.9,2.7-14.1l0,0C778,766.1,772.1,758,765.7,758z"/>
		</g>
	</g>
	<g>
		
			<ellipse transform="matrix(8.728623e-02 -0.9962 0.9962 8.728623e-02 486.8057 1310.3862)" class="st0" cx="958.5" cy="389.5" rx="160.3" ry="76.9"/>
		<path class="st15" d="M989.7,525.7c3.8-4.4,7.4-9.4,10.9-14.9l19-237c-2.5-5.8-5.4-11.1-8.4-15.9L989.7,525.7z"/>
		
			<ellipse transform="matrix(0.9805 -0.1967 0.1967 0.9805 -76.4493 85.4269)" class="st0" cx="391.8" cy="427.5" rx="77.7" ry="160.4"/>
		<path class="st15" d="M318,319.1l44.7,233.6c4.1,5.1,8.2,9.6,12.5,13.6l-50.5-263.9C322.1,307.4,319.9,313,318,319.1z"/>
		
			<radialGradient id="SVGID_12_" cx="795.0304" cy="428.319" r="296.4818" gradientTransform="matrix(1.4885 -9.980000e-02 9.800000e-02 1.4606 -550.4507 -231.85)" gradientUnits="userSpaceOnUse">
			<stop  offset="0.1534" style="stop-color:#FFFFFF"/>
			<stop  offset="0.4375" style="stop-color:#FDFEFE"/>
			<stop  offset="0.5956" style="stop-color:#F5F9F9"/>
			<stop  offset="0.7227" style="stop-color:#E7F2F1"/>
			<stop  offset="0.8333" style="stop-color:#D3E8E5"/>
			<stop  offset="0.9323" style="stop-color:#BADBD6"/>
			<stop  offset="1" style="stop-color:#A4CFC9"/>
		</radialGradient>
		<path class="st16" d="M984.4,247C975.2,109.5,825.8,7.5,650.7,19.3C475.6,31,341.1,152,350.3,289.5c0.3,3.8,0.7,7.6,1.1,11.4
			l-0.2,0l0.9,4.8c0.8,5.6,1.9,11.2,3.3,16.7l25.3,129.7l22.5,115.2c7.3,37.2,31.1,69.2,65,87.2c59.7,31.8,140.4,48.6,228,42.7
			c83.5-5.6,158.1-30.8,212.5-67.4c32.2-21.7,52.5-56.7,55.4-94.9l19.1-248.9c1.2-9,1.7-18.2,1.7-27.4l0-0.2l0,0
			C984.8,254.6,984.7,250.8,984.4,247z"/>
		<g class="st7">
			<path class="st2" d="M654.5,165.7c-44.9,0-82.8-34.3-85.8-78.9l-3.5-52.9c-0.1-1.2,0.8-2.3,2-2.3c1.2-0.1,2.3,0.8,2.3,2l3.5,52.9
				c3,44.2,42,77.6,87.1,74.6c21.8-1.5,41.8-11.2,56.2-27.4c14.4-16.2,21.5-36.8,20.1-58.2L733,22.7c-0.1-1.2,0.8-2.3,2-2.3
				c1.2-0.1,2.3,0.8,2.3,2l3.5,52.9c1.5,22.6-6,44.4-21.2,61.4c-15.2,17-36.2,27.3-59.2,28.8C658.5,165.6,656.5,165.7,654.5,165.7z"
				/>
		</g>
		<g class="st7">
			<path class="st2" d="M893.1,641.8C893.1,641.8,893.1,641.8,893.1,641.8c-1.2,0-2.2-1-2.2-2.2c0.8-114.7,3.3-386.9,10.2-436.1
				c7.6-54.6,37.6-70.3,38.9-71c1.1-0.5,2.4-0.1,2.9,1c0.5,1.1,0.1,2.4-1,2.9l0,0c-0.3,0.1-29.2,15.5-36.5,67.7
				c-6.8,48.9-9.4,320.9-10.2,435.5C895.3,640.8,894.3,641.8,893.1,641.8z"/>
		</g>
		<g class="st7">
			<path class="st2" d="M488.7,666.6c-1.1,0-2-0.8-2.2-1.9c-16-112.9-54.7-380.7-67.9-428c-14.3-50.9-41.7-60.6-41.9-60.7
				c-1.1-0.4-1.8-1.6-1.4-2.8c0.4-1.1,1.6-1.8,2.8-1.4c1.2,0.4,29.9,10.5,44.8,63.7c13.3,47.6,52,315.6,68,428.6
				c0.2,1.2-0.7,2.3-1.9,2.5C488.9,666.6,488.8,666.6,488.7,666.6z"/>
		</g>
		<g>
			<path class="st0" d="M502.1,336.6c-51.6,3.5-88.5,51.3-78.7,102.1v0L446,556.1c4.8,25.1,20.7,46.7,43.2,58.8
				c55.2,29.9,127.6,43.6,204,38.5c72.8-4.9,140.5-26.5,190.6-60.8c21.2-14.5,34.4-37.7,36.3-63.7l9.1-122.7
				c3.9-52.2-39.4-95.7-91.6-92.2L502.1,336.6z"/>
			<path class="st2" d="M662,658.9c-65.4,0-126.6-13.9-174.8-40.1c-23.8-12.9-40.3-35.4-45.4-61.9l-22.6-117.4
				c-4.9-25.4,1.4-51.8,17.2-72.3c15.8-20.5,39.7-33.3,65.6-35l335.6-22.5c26.1-1.8,51.7,7.9,70.2,26.5c18.5,18.6,28,44.3,26,70.4
				l-9.1,122.7c-2,27.3-16,51.7-38.2,67C835.5,631,767,652.9,693.5,657.8C682.9,658.5,672.4,658.9,662,658.9z M502.4,340.9
				c-23.3,1.6-44.9,13.1-59.2,31.6c-14.3,18.5-19.9,42.3-15.5,65.3l22.6,117.4c4.6,23.8,19.5,44.2,41,55.8
				c54.5,29.5,126.1,43,201.6,38c72-4.8,138.9-26.2,188.4-60.1c20.1-13.7,32.6-35.8,34.5-60.4l9.1-122.7
				c1.7-23.6-6.8-46.8-23.5-63.6c-16.7-16.8-39.8-25.5-63.4-23.9L502.4,340.9z"/>
		</g>
		<path class="st2" d="M963.5,170.5c13.3,55.5-14,224.8-16.7,306.2C944,565.6,920,659.5,694.6,674.6c-225.4,15.1-283.6-82-283.6-82
			c11.3,26.1,31.2,48.1,57.1,61.8c59.7,31.8,140.4,48.6,228,42.7c83.5-5.6,158.1-30.8,212.5-67.4c32.2-21.7,52.5-56.7,55.4-94.9
			l19.1-248.9c1.2-9,1.7-18.2,1.7-27.4l0-0.2l0,0c0-3.8-0.1-7.6-0.4-11.4C982.6,219.9,975.3,194.2,963.5,170.5z"/>
		<g>
			
				<ellipse transform="matrix(0.7071 -0.7071 0.7071 0.7071 -172.2854 524.6066)" class="st15" cx="547.1" cy="470.3" rx="38.9" ry="38.9"/>
			
				<ellipse transform="matrix(0.9765 -0.2154 0.2154 0.9765 -75.8616 185.4968)" class="st15" cx="813" cy="440.7" rx="38.9" ry="38.9"/>
		</g>
		<path class="st15" d="M723.5,520.2c1.2,20.2-16.2,37.7-38.8,39c-22.6,1.3-41.8-14.1-43-34.3c-1.2-20.2,16.5-17.8,39.1-19.1
			C703.4,504.5,722.3,500,723.5,520.2z"/>
	</g>
</g>
</svg>
